<mxfile host="65bd71144e">
    <diagram id="Ry5launMPZh9lKB0fWT2" name="HttpVauConduit">
        <mxGraphModel dx="1348" dy="507" grid="1" gridSize="10" guides="1" tooltips="1" connect="1" arrows="1" fold="1" page="1" pageScale="1" pageWidth="827" pageHeight="1169" math="0" shadow="0">
            <root>
                <mxCell id="0"/>
                <mxCell id="1" parent="0"/>
                <mxCell id="2" value="Quarkus App" style="shape=agent;offsetSize=8;strokeWidth=2;verticalAlign=top;" vertex="1" parent="1">
                    <mxGeometry x="-50" y="110" width="420" height="250" as="geometry"/>
                </mxCell>
                <mxCell id="0.1" value="Best viewed with the &lt;a href=&quot;https://github.com/ariel-bentu/tam-drawio&quot;&gt;TAM plugin&lt;/a&gt;" style="text;html=1;shape=tamPluginMissing;" vertex="1" connectable="0" parent="1">
                    <mxGeometry x="85" y="390" width="200" height="25" as="geometry"/>
                </mxCell>
                <mxCell id="3" value="HttpsVauCXFTransportRegister" style="shape=agent;offsetSize=8;strokeWidth=2;verticalAlign=top;" vertex="1" parent="1">
                    <mxGeometry x="170" y="140" width="180" height="90" as="geometry"/>
                </mxCell>
                <mxCell id="4" value="OnStartup" style="shape=agent;offsetSize=8;strokeWidth=2;" vertex="1" parent="1">
                    <mxGeometry x="180" y="180" width="160" height="40" as="geometry"/>
                </mxCell>
                <mxCell id="5" value="Bus" style="shape=agent;offsetSize=8;strokeWidth=2;verticalAlign=top;" vertex="1" parent="1">
                    <mxGeometry x="-40" y="140" width="160" height="90" as="geometry"/>
                </mxCell>
                <mxCell id="6" value="registerDestinationFactory" style="shape=agent;offsetSize=8;strokeWidth=2;" vertex="1" parent="1">
                    <mxGeometry x="-30" y="180" width="140" height="40" as="geometry"/>
                </mxCell>
                <mxCell id="7" value="" style="shape=useedge;endArrow=none;edgeStyle=none;useSignPosition=up;useSignDirection=none;exitX=1;exitY=0.5;exitDx=0;exitDy=0;entryX=0;entryY=0.5;entryDx=0;entryDy=0;" edge="1" parent="1" source="6" target="4">
                    <mxGeometry width="160" relative="1" as="geometry">
                        <mxPoint x="100" y="210" as="sourcePoint"/>
                        <mxPoint x="260" y="210" as="targetPoint"/>
                    </mxGeometry>
                </mxCell>
                <mxCell id="8" value="InformationService" style="shape=agent;offsetSize=8;strokeWidth=2;" vertex="1" parent="1">
                    <mxGeometry x="-40" y="322.5" width="390" height="20" as="geometry"/>
                </mxCell>
                <mxCell id="11" value="" style="rounded=1;whiteSpace=wrap;html=1;arcSize=60;strokeWidth=2;fillColor=#f5f5f5;fontColor=#333333;strokeColor=#666666;dashed=1;" vertex="1" parent="1">
                    <mxGeometry x="-40" y="260" width="160" height="40" as="geometry"/>
                </mxCell>
                <mxCell id="12" value="HttpVauConduit" style="shape=agent;offsetSize=8;strokeWidth=2;" vertex="1" parent="1">
                    <mxGeometry x="-10" y="270" width="100" height="20" as="geometry"/>
                </mxCell>
                <mxCell id="13" value="" style="shape=updateedge;endArrow=none;vertical=true;exitX=0.5;exitY=1;exitDx=0;exitDy=0;entryX=0.5;entryY=0;entryDx=0;entryDy=0;" edge="1" parent="1" source="5" target="11">
                    <mxGeometry width="30" height="80" relative="1" as="geometry">
                        <mxPoint x="5" y="220" as="sourcePoint"/>
                        <mxPoint x="5" y="300" as="targetPoint"/>
                    </mxGeometry>
                </mxCell>
                <mxCell id="14" value="" style="shape=useedge;vertical=true;edgeStyle=none;endArrow=none;useSignPosition=left;useSignDirection=none;entryX=0.5;entryY=1;entryDx=0;entryDy=0;exitX=0.201;exitY=-0.085;exitDx=0;exitDy=0;exitPerimeter=0;" edge="1" parent="1" source="8" target="12">
                    <mxGeometry height="160" relative="1" as="geometry">
                        <mxPoint x="20" y="480" as="sourcePoint"/>
                        <mxPoint x="20" y="320" as="targetPoint"/>
                    </mxGeometry>
                </mxCell>
            </root>
        </mxGraphModel>
    </diagram>
</mxfile>